<svg width="48" height="48" viewBox="0 0 48 48" fill="none" xmlns="http://www.w3.org/2000/svg">
<rect width="48" height="48" rx="6" fill="#495CEF"/>
<path d="M32.0801 28.8393L34.4288 31.0107C33.4243 32.3106 32.154 33.3446 30.6178 34.1127C29.1111 34.8513 27.3976 35.2206 25.4773 35.2206C23.2616 35.2206 21.2823 34.7183 19.5393 33.7139C17.8258 32.7094 16.4668 31.3357 15.4624 29.5927C14.4875 27.8497 14 25.8555 14 23.6103C14 21.365 14.4875 19.3709 15.4624 17.6279C16.4668 15.8849 17.8406 14.5111 19.5836 13.5067C21.3266 12.5022 23.306 12 25.5217 12C27.4419 12 29.1554 12.3841 30.6621 13.1522C32.1688 13.8907 33.4243 14.91 34.4288 16.2098L32.0801 18.3812C31.3711 17.3177 30.4848 16.4757 29.4213 15.8553C28.3578 15.2054 27.0579 14.8804 25.5217 14.8804C23.9264 14.8804 22.5231 15.2497 21.3118 15.9883C20.1006 16.7268 19.1552 17.7608 18.4757 19.0903C17.7962 20.3901 17.4565 21.8968 17.4565 23.6103C17.4565 25.3238 17.7962 26.8452 18.4757 28.1746C19.1552 29.4745 20.1006 30.4937 21.3118 31.2323C22.5231 31.9709 23.9264 32.3402 25.5217 32.3402C27.0579 32.3402 28.3578 32.03 29.4213 31.4096C30.4848 30.7596 31.3711 29.9029 32.0801 28.8393Z" fill="white"/>
</svg>
